<?xml version="1.0" encoding="utf-8"?>
<!-- Generator: Adobe Illustrator 18.1.1, SVG Export Plug-In . SVG Version: 6.00 Build 0)  -->
<svg version="1.1" id="Calque_1" xmlns="http://www.w3.org/2000/svg" xmlns:xlink="http://www.w3.org/1999/xlink" x="0px" y="0px"
	 viewBox="0 0 150 150" enable-background="new 0 0 150 150" xml:space="preserve">
<g id="Typewriter" transform="translate(5.000000, 7.000000)">
	<path id="Shape" fill="#010202" d="M105.9,133.9v-5.6c0-0.6-0.5-1-1-1H35.3c-0.6,0-1,0.5-1,1v5.6c0,0.6,0.5,1,1,1h69.5
		C105.4,135,105.9,134.5,105.9,133.9L105.9,133.9z M20.5,110.2v2.9c0,1.1,0.9,2.1,2.1,2.1h2.9c1.2,0,2.1-0.9,2.1-2.1v-2.9
		c0-1.1-0.9-2.1-2.1-2.1h-2.9C21.5,108.1,20.5,109,20.5,110.2L20.5,110.2z M29.7,110.2v2.9c0,1.1,0.9,2.1,2.1,2.1h2.9
		c1.1,0,2.1-0.9,2.1-2.1v-2.9c0-1.1-0.9-2.1-2.1-2.1h-2.9C30.7,108.1,29.7,109,29.7,110.2L29.7,110.2z M39,110.2v2.9
		c0,1.1,0.9,2.1,2.1,2.1h2.9c1.2,0,2.1-0.9,2.1-2.1v-2.9c0-1.1-0.9-2.1-2.1-2.1H41C39.9,108.1,39,109,39,110.2L39,110.2z
		 M48.2,110.2v2.9c0,1.1,0.9,2.1,2.1,2.1h2.9c1.2,0,2.1-0.9,2.1-2.1v-2.9c0-1.1-0.9-2.1-2.1-2.1h-2.9
		C49.1,108.1,48.2,109,48.2,110.2L48.2,110.2z M57.4,110.2v2.9c0,1.1,0.9,2.1,2.1,2.1h2.9c1.2,0,2.1-0.9,2.1-2.1v-2.9
		c0-1.1-0.9-2.1-2.1-2.1h-2.9C58.3,108.1,57.4,109,57.4,110.2L57.4,110.2z M66.6,110.2v2.9c0,1.1,0.9,2.1,2.1,2.1h2.9
		c1.2,0,2.1-0.9,2.1-2.1v-2.9c0-1.1-0.9-2.1-2.1-2.1h-2.9C67.5,108.1,66.6,109,66.6,110.2L66.6,110.2z M75.8,110.2v2.9
		c0,1.1,0.9,2.1,2.1,2.1h2.9c1.2,0,2.1-0.9,2.1-2.1v-2.9c0-1.1-0.9-2.1-2.1-2.1h-2.9C76.7,108.1,75.8,109,75.8,110.2L75.8,110.2z
		 M85,110.2v2.9c0,1.1,0.9,2.1,2.1,2.1H90c1.2,0,2.1-0.9,2.1-2.1v-2.9c0-1.1-0.9-2.1-2.1-2.1h-2.9C86,108.1,85,109,85,110.2
		L85,110.2z M94.2,110.2v2.9c0,1.1,0.9,2.1,2.1,2.1h2.9c1.2,0,2.1-0.9,2.1-2.1v-2.9c0-1.1-0.9-2.1-2.1-2.1h-2.9
		C95.2,108.1,94.2,109,94.2,110.2L94.2,110.2z M103.5,110.2v2.9c0,1.1,0.9,2.1,2.1,2.1h2.9c1.2,0,2.1-0.9,2.1-2.1v-2.9
		c0-1.1-0.9-2.1-2.1-2.1h-2.9C104.4,108.1,103.5,109,103.5,110.2L103.5,110.2z M112.7,110.2v2.9c0,1.1,0.9,2.1,2.1,2.1h2.9
		c1.1,0,2.1-0.9,2.1-2.1v-2.9c0-1.1-0.9-2.1-2.1-2.1h-2.9C113.6,108.1,112.7,109,112.7,110.2L112.7,110.2z M15.9,100.7v2.9
		c0,1.2,0.9,2.1,2.1,2.1h2.9c1.1,0,2.1-0.9,2.1-2.1v-2.9c0-1.1-0.9-2.1-2.1-2.1H18C16.8,98.6,15.9,99.6,15.9,100.7L15.9,100.7z
		 M25.1,100.7v2.9c0,1.2,0.9,2.1,2.1,2.1h2.9c1.2,0,2.1-0.9,2.1-2.1v-2.9c0-1.1-0.9-2.1-2.1-2.1h-2.9C26,98.6,25.1,99.6,25.1,100.7
		L25.1,100.7z M34.3,100.7v2.9c0,1.2,0.9,2.1,2.1,2.1h2.9c1.1,0,2.1-0.9,2.1-2.1v-2.9c0-1.1-0.9-2.1-2.1-2.1h-2.9
		C35.3,98.6,34.3,99.6,34.3,100.7L34.3,100.7z M43.5,100.7v2.9c0,1.2,0.9,2.1,2.1,2.1h2.9c1.2,0,2.1-0.9,2.1-2.1v-2.9
		c0-1.1-0.9-2.1-2.1-2.1h-2.9C44.5,98.6,43.5,99.6,43.5,100.7L43.5,100.7z M52.8,100.7v2.9c0,1.2,0.9,2.1,2.1,2.1h2.9
		c1.1,0,2.1-0.9,2.1-2.1v-2.9c0-1.1-0.9-2.1-2.1-2.1h-2.9C53.7,98.6,52.8,99.6,52.8,100.7L52.8,100.7z M62,100.7v2.9
		c0,1.2,0.9,2.1,2.1,2.1h2.9c1.1,0,2.1-0.9,2.1-2.1v-2.9c0-1.1-0.9-2.1-2.1-2.1h-2.9C62.9,98.6,62,99.6,62,100.7L62,100.7z
		 M71.2,100.7v2.9c0,1.2,0.9,2.1,2.1,2.1h2.9c1.2,0,2.1-0.9,2.1-2.1v-2.9c0-1.1-0.9-2.1-2.1-2.1h-2.9
		C72.1,98.6,71.2,99.6,71.2,100.7L71.2,100.7z M80.4,100.7v2.9c0,1.2,0.9,2.1,2.1,2.1h2.9c1.1,0,2.1-0.9,2.1-2.1v-2.9
		c0-1.1-0.9-2.1-2.1-2.1h-2.9C81.3,98.6,80.4,99.6,80.4,100.7L80.4,100.7z M89.6,100.7v2.9c0,1.2,0.9,2.1,2.1,2.1h2.9
		c1.2,0,2.1-0.9,2.1-2.1v-2.9c0-1.1-0.9-2.1-2.1-2.1h-2.9C90.5,98.6,89.6,99.6,89.6,100.7L89.6,100.7z M98.8,100.7v2.9
		c0,1.2,0.9,2.1,2.1,2.1h2.9c1.1,0,2.1-0.9,2.1-2.1v-2.9c0-1.1-0.9-2.1-2.1-2.1h-2.9C99.8,98.6,98.8,99.6,98.8,100.7L98.8,100.7z
		 M108,100.7v2.9c0,1.2,0.9,2.1,2.1,2.1h2.9c1.2,0,2.1-0.9,2.1-2.1v-2.9c0-1.1-0.9-2.1-2.1-2.1h-2.9C109,98.6,108,99.6,108,100.7
		L108,100.7z M117.3,100.7v2.9c0,1.2,0.9,2.1,2.1,2.1h2.9c1.2,0,2.1-0.9,2.1-2.1v-2.9c0-1.1-0.9-2.1-2.1-2.1h-2.9
		C118.2,98.6,117.3,99.6,117.3,100.7L117.3,100.7z M98.8,119.7v2.9c0,1.2,0.9,2.1,2.1,2.1h2.9c1.2,0,2.1-0.9,2.1-2.1v-2.9
		c0-1.1-0.9-2.1-2.1-2.1h-2.9C99.8,117.6,98.8,118.5,98.8,119.7L98.8,119.7z M108,119.7v2.9c0,1.2,0.9,2.1,2.1,2.1h2.9
		c1.2,0,2.1-0.9,2.1-2.1v-2.9c0-1.1-0.9-2.1-2.1-2.1h-2.9C109,117.6,108,118.5,108,119.7L108,119.7z M25.1,119.7v2.9
		c0,1.2,0.9,2.1,2.1,2.1h2.9c1.2,0,2.1-0.9,2.1-2.1v-2.9c0-1.1-0.9-2.1-2.1-2.1h-2.9C26,117.6,25.1,118.5,25.1,119.7L25.1,119.7z
		 M34.3,119.7v2.9c0,1.2,0.9,2.1,2.1,2.1h2.9c1.1,0,2.1-0.9,2.1-2.1v-2.9c0-1.1-0.9-2.1-2.1-2.1h-2.9
		C35.3,117.6,34.3,118.5,34.3,119.7L34.3,119.7z M43.5,119.7v2.9c0,1.2,0.9,2.1,2.1,2.1h2.9c1.2,0,2.1-0.9,2.1-2.1v-2.9
		c0-1.1-0.9-2.1-2.1-2.1h-2.9C44.5,117.6,43.5,118.5,43.5,119.7L43.5,119.7z M52.8,119.7v2.9c0,1.2,0.9,2.1,2.1,2.1h2.9
		c1.2,0,2.1-0.9,2.1-2.1v-2.9c0-1.1-0.9-2.1-2.1-2.1h-2.9C53.7,117.6,52.8,118.5,52.8,119.7L52.8,119.7z M62,119.7v2.9
		c0,1.2,0.9,2.1,2.1,2.1h2.9c1.1,0,2.1-0.9,2.1-2.1v-2.9c0-1.1-0.9-2.1-2.1-2.1h-2.9C62.9,117.6,62,118.5,62,119.7L62,119.7z
		 M71.2,119.7v2.9c0,1.2,0.9,2.1,2.1,2.1h2.9c1.2,0,2.1-0.9,2.1-2.1v-2.9c0-1.1-0.9-2.1-2.1-2.1h-2.9
		C72.1,117.6,71.2,118.5,71.2,119.7L71.2,119.7z M80.4,119.7v2.9c0,1.2,0.9,2.1,2.1,2.1h2.9c1.2,0,2.1-0.9,2.1-2.1v-2.9
		c0-1.1-0.9-2.1-2.1-2.1h-2.9C81.3,117.6,80.4,118.5,80.4,119.7L80.4,119.7z M89.6,119.7v2.9c0,1.2,0.9,2.1,2.1,2.1h2.9
		c1.2,0,2.1-0.9,2.1-2.1v-2.9c0-1.1-0.9-2.1-2.1-2.1h-2.9C90.5,117.6,89.6,118.5,89.6,119.7L89.6,119.7z M114.6,48.9h-8.3
		c-0.4,0.8-1.2,1.3-2.3,1.3h-7c-1.2,0-1.9-0.6-2.3-1.3H45.4c-0.4,0.8-1.2,1.3-2.3,1.3h-7c-1.2,0-1.9-0.6-2.3-1.3h-8.1l0,14.3h30.5
		c3.9,0,7.1,2.9,7.1,6.5c0,3.6-3.2,6.5-7.1,6.5l-10.6,0c-3.9,0-7.1,2.9-7.1,6.5c0,3.6,3.2,6.5,7.1,6.5h49.2c3.9,0,7.1-2.9,7.1-6.5
		c0-3.6-3.2-6.5-7.1-6.5l-10.6,0c-3.9,0-7.1-2.9-7.1-6.5c0-3.6,3.2-6.5,7.1-6.5h30.5L114.6,48.9L114.6,48.9z M114.7-2.4h-89l0,48.6
		h8.1c0.4-0.8,1.2-1.3,2.3-1.3h7c1.2,0,1.9,0.6,2.3,1.3h49.2c0.4-0.8,1.2-1.3,2.3-1.3h7c1.2,0,1.9,0.6,2.3,1.3h8.3L114.7-2.4
		L114.7-2.4z M-0.4,40.5c-1.5,0-2.7,1.2-2.7,2.7v2.1h13.9v-4.8L-0.4,40.5L-0.4,40.5z M140.4,40.5h-11.2v4.8H143v-2.1
		C143,41.6,141.8,40.5,140.4,40.5L140.4,40.5z M129.1,32.9l0,5.6h11.3c2.6,0,4.6,2.1,4.6,4.6v12.5c0,2.6-2.1,4.6-4.6,4.6h-11.3
		l0,67.7c0,6.9-5.6,12.5-12.5,12.5H70H23.4c-6.9,0-12.5-5.6-12.5-12.5V60.3H-0.4c-2.6,0-4.6-2.1-4.6-4.6V43.1c0-2.6,2.1-4.6,4.6-4.6
		h11.3l0-5.6c0-1.5,1.2-2.7,2.7-2.7h9.9V-4.5H70h46.5v34.7h9.9C127.9,30.2,129.1,31.4,129.1,32.9L129.1,32.9z"/>
</g>
</svg>
